<svg width="24" height="24" xmlns="http://www.w3.org/2000/svg">
 <title>Codewars icon</title>

 <g>
  <title>background</title>
  <rect fill="none" id="canvas_background" height="402" width="582" y="-1" x="-1"/>
 </g>
 <g>
  <title>Layer 1</title>
  <path fill="#ffffff" stroke-width="0" id="svg_1" d="m0.76,12.2l-0.08,-0.04c-0.18,-0.1 -0.32,-0.25 -0.42,-0.44c-0.14,-0.26 -0.2,-0.5 -0.2,-0.75l0.02,-0.13c0,-0.2 0.05,-0.38 0.14,-0.55l0.08,-0.15c0.04,-0.08 0.1,-0.15 0.15,-0.22c0.06,-0.07 0.07,-0.16 0.05,-0.24l-0.05,-0.16c-0.06,-0.2 -0.1,-0.4 -0.1,-0.6l-0.03,-0.12c0,-0.22 0.06,-0.44 0.2,-0.6l0.1,-0.13c0.07,-0.1 0.18,-0.16 0.3,-0.2c0.1,-0.03 0.17,-0.13 0.18,-0.25l0.02,-0.34c0,-0.27 0.13,-0.52 0.33,-0.7l0.24,-0.18c0.05,-0.05 0.1,-0.1 0.14,-0.18c0.05,-0.06 0.06,-0.14 0.05,-0.2c-0.02,-0.1 0,-0.13 0.05,-0.14c0.16,0.06 0.26,0.04 0.33,-0.04l0.13,-0.17l0.36,-0.4c0.1,-0.1 0.14,-0.28 0.08,-0.42l-0.12,-0.26c-0.02,-0.06 0,-0.13 0.05,-0.15c0.13,0 0.22,0.05 0.26,0.13l0.04,0.07c0.06,0.12 0.2,0.18 0.3,0.13c0.22,-0.08 0.4,-0.1 0.57,-0.1l0.32,0c0.22,0 0.4,-0.15 0.44,-0.38c0.04,-0.28 0.14,-0.5 0.28,-0.65c0.15,-0.17 0.32,-0.3 0.52,-0.4c0.26,-0.14 0.42,-0.34 0.47,-0.6c0.07,-0.32 0.24,-0.55 0.47,-0.7l0.76,-0.43l0.22,-0.13c0.13,-0.08 0.25,-0.18 0.35,-0.3l0.2,-0.24c0.1,-0.1 0.2,-0.17 0.32,-0.2c0.1,-0.03 0.24,-0.05 0.36,-0.04l0.4,0.03c0.2,0 0.36,0.05 0.52,0.12l0.1,0.05c0.1,0.04 0.2,0.02 0.25,-0.05l0.09,-0.05l0.43,-0.45c0.1,-0.1 0.22,-0.14 0.35,-0.12c0.13,0.02 0.26,0.07 0.38,0.13c0.18,0.1 0.33,0.14 0.5,0.14l0.1,0c0.22,0 0.44,0.03 0.66,0.08l0.15,0.04c0.15,0.04 0.3,-0.02 0.4,-0.14c0.03,-0.05 0.1,-0.06 0.14,-0.02c0.03,0.02 0.04,0.04 0.05,0.07c0.02,0.2 0.14,0.35 0.3,0.4l0.16,0.05c0.17,0.05 0.32,0.16 0.42,0.3c0.1,0.15 0.22,0.3 0.36,0.4l0.1,0.1c0.1,0.1 0.24,0.14 0.38,0.13l0.59,0c0.24,0 0.47,0.04 0.7,0.14c0.22,0.1 0.45,0.12 0.66,0.04c0.22,-0.07 0.45,-0.1 0.68,-0.07l0.43,0.07c0.2,0.02 0.4,0.12 0.52,0.27l0.05,0.05c0.1,0.1 0.2,0.23 0.3,0.37c0.06,0.13 0.2,0.2 0.34,0.2l0.62,0c0.15,0 0.3,0.03 0.42,0.1c0.13,0.1 0.24,0.2 0.34,0.3l0.1,0.13c0.12,0.14 0.18,0.33 0.17,0.53c0,0.16 0.12,0.3 0.28,0.3l0.2,0.02c0.14,0 0.26,0.1 0.33,0.23l0.1,0.2l0.26,0.58c0.04,0.1 0.05,0.2 0.04,0.28c0,0.1 0.03,0.18 0.1,0.22l0.1,0.07c0.13,0.1 0.2,0.25 0.18,0.42l-0.07,0.47l-0.02,0.2c-0.02,0.1 0.03,0.23 0.12,0.3c0.15,0.1 0.22,0.23 0.23,0.38l0,0.2c0,0.1 -0.02,0.22 -0.1,0.3c-0.06,0.08 -0.1,0.18 -0.1,0.3l0.03,0.23c0,0.16 0.1,0.3 0.2,0.4c0.14,0.1 0.22,0.26 0.24,0.42c0.04,0.25 0.05,0.45 0.05,0.65l0,0.23c0,0.08 0,0.16 0.03,0.24c0.02,0.07 0.07,0.14 0.13,0.18l0.2,0.15c0.2,0.13 0.34,0.3 0.42,0.53c0.1,0.22 0.13,0.45 0.13,0.68l0,0.08c0,0.18 -0.02,0.37 -0.08,0.54c-0.05,0.18 -0.04,0.35 0.03,0.5c0.08,0.14 0.13,0.3 0.15,0.47c0.04,0.2 0.02,0.4 -0.05,0.56l-0.02,0.07c-0.05,0.12 -0.13,0.23 -0.23,0.32c-0.1,0.1 -0.2,0.16 -0.26,0.23c-0.06,0.06 -0.1,0.16 -0.07,0.25l0.03,0.14c0.05,0.2 0.05,0.4 0,0.58l0,0.08c-0.04,0.15 -0.1,0.28 -0.16,0.4c-0.07,0.13 -0.17,0.23 -0.3,0.3l-0.15,0.1c-0.07,0.04 -0.12,0.13 -0.12,0.22c0,0.1 -0.04,0.2 -0.1,0.26l-0.15,0.2c-0.1,0.13 -0.23,0.24 -0.37,0.3c-0.14,0.1 -0.26,0.2 -0.35,0.3c-0.1,0.12 -0.18,0.26 -0.22,0.4c-0.04,0.18 -0.18,0.28 -0.33,0.28l-0.54,0c-0.14,0 -0.27,0.1 -0.33,0.22c-0.07,0.16 -0.14,0.27 -0.23,0.37c-0.1,0.1 -0.16,0.22 -0.2,0.36c-0.02,0.12 -0.12,0.2 -0.22,0.16c-0.13,-0.06 -0.26,0 -0.32,0.1c-0.12,0.2 -0.24,0.35 -0.37,0.48l-0.07,0.06c-0.13,0.1 -0.3,0.18 -0.45,0.18c-0.18,0 -0.27,0.08 -0.3,0.2c-0.03,0.1 -0.05,0.23 -0.06,0.34c-0.02,0.12 -0.06,0.23 -0.1,0.33l-0.05,0.06c-0.1,0.15 -0.18,0.3 -0.28,0.43l-0.04,0.06c-0.13,0.17 -0.3,0.3 -0.5,0.35c-0.24,0.08 -0.45,0.1 -0.66,0.1l-0.14,0c-0.1,0 -0.2,0.06 -0.27,0.16l-0.06,0.1l-0.06,0.12l-0.13,0.22c-0.1,0.18 -0.25,0.3 -0.45,0.36c-0.2,0.05 -0.43,0.07 -0.64,0.06l-0.16,-0.02c-0.14,0 -0.27,-0.04 -0.4,-0.1c-0.1,-0.04 -0.24,0 -0.3,0.1c-0.1,0.14 -0.22,0.22 -0.35,0.26l-0.3,0.1c-0.2,0.05 -0.42,0.05 -0.63,0l-0.16,-0.05c-0.1,0 -0.2,-0.05 -0.28,-0.1c-0.1,-0.05 -0.2,-0.07 -0.3,-0.06l-0.13,0.02c-0.2,0.02 -0.38,0 -0.56,-0.05l-0.27,-0.06c-0.12,-0.04 -0.23,-0.12 -0.3,-0.23c-0.05,-0.1 -0.16,-0.18 -0.3,-0.2l-0.32,0c-0.2,-0.03 -0.38,-0.1 -0.5,-0.25l-0.4,-0.38l-0.14,-0.12l-0.22,-0.16l-0.13,-0.1c-0.15,-0.1 -0.33,-0.18 -0.52,-0.2l-0.6,-0.1c-0.06,0 -0.1,-0.02 -0.16,-0.03l-0.23,-0.05c-0.1,-0.02 -0.2,-0.1 -0.27,-0.2c-0.06,-0.1 -0.17,-0.14 -0.27,-0.1c-0.2,0.08 -0.36,0.1 -0.52,0.13l-0.14,0c-0.26,0.02 -0.5,-0.02 -0.74,-0.13c-0.24,-0.1 -0.4,-0.25 -0.55,-0.44c-0.12,-0.17 -0.3,-0.3 -0.52,-0.34l-0.28,-0.06c-0.2,-0.04 -0.4,-0.12 -0.58,-0.24c-0.2,-0.14 -0.3,-0.27 -0.38,-0.43c-0.08,-0.15 -0.13,-0.32 -0.14,-0.5l0,-0.08c-0.02,-0.2 -0.16,-0.38 -0.35,-0.43c-0.23,-0.07 -0.4,-0.17 -0.55,-0.3c-0.14,-0.13 -0.22,-0.32 -0.22,-0.52l0.02,-0.44c0,-0.17 -0.05,-0.32 -0.17,-0.43c-0.12,-0.12 -0.2,-0.27 -0.2,-0.43l-0.03,-0.36c-0.02,-0.26 -0.07,-0.52 -0.13,-0.78c-0.06,-0.23 0.03,-0.46 0.22,-0.57l0.07,-0.05c0.1,-0.07 0.14,-0.2 0.08,-0.32l-0.08,-0.1c-0.1,-0.1 -0.2,-0.17 -0.3,-0.2c-0.08,-0.02 -0.1,-0.1 -0.1,-0.15l0.1,-0.12c0.06,-0.07 0.05,-0.18 0,-0.24c-0.08,-0.08 -0.12,-0.18 -0.13,-0.28l-0.02,-0.7c0,-0.14 0.02,-0.28 0.06,-0.42c0.04,-0.12 0,-0.26 -0.12,-0.32l0,0.01zm9.9,-1.33c0.07,-0.07 0.06,-0.2 0,-0.25c-0.1,-0.08 -0.17,-0.17 -0.23,-0.27l-0.1,-0.16c-0.07,-0.13 -0.16,-0.24 -0.26,-0.34l-0.02,-0.02c-0.1,-0.08 -0.17,-0.18 -0.23,-0.3c-0.05,-0.1 -0.05,-0.2 0,-0.3l0.06,-0.1c0.06,-0.1 0.1,-0.24 0.1,-0.36l0,-0.04c0,-0.1 -0.04,-0.2 -0.1,-0.3c-0.04,-0.08 -0.08,-0.18 -0.1,-0.28l0,-0.05c-0.03,-0.12 0,-0.25 0.08,-0.35c0.08,-0.13 0.14,-0.25 0.17,-0.4l0,-0.02c0.04,-0.1 0.02,-0.23 -0.04,-0.33s-0.08,-0.2 -0.04,-0.32l0.07,-0.2c0.06,-0.18 0.15,-0.34 0.27,-0.48l0.14,-0.15l0.1,-0.12l0.06,-0.06c0.06,-0.06 0.07,-0.16 0.02,-0.24c-0.05,-0.1 -0.08,-0.2 -0.06,-0.3l0.02,-0.14c0.03,-0.2 0.1,-0.4 0.23,-0.56l0.04,-0.04c0.15,-0.2 0.34,-0.33 0.56,-0.4l0.27,-0.1c0.12,-0.04 0.2,-0.17 0.2,-0.3c0,-0.16 0.05,-0.3 0.14,-0.43l0.05,-0.05c0.1,-0.17 0.22,-0.34 0.3,-0.52l0.07,-0.13c0.02,-0.03 0.03,-0.07 0.03,-0.1c0,-0.17 -0.1,-0.32 -0.26,-0.33l-0.44,-0.03c-0.25,-0.02 -0.5,0 -0.74,0l-0.85,0.1c-0.13,0 -0.23,0.1 -0.24,0.24c0,0.14 -0.1,0.26 -0.22,0.3l-0.36,0.1l-0.1,0.03l-0.3,0.1c-0.22,0.07 -0.4,0.23 -0.5,0.45l-0.08,0.13c-0.1,0.22 -0.27,0.4 -0.48,0.53c-0.2,0.13 -0.3,0.34 -0.32,0.58l0,0.1c-0.02,0.2 -0.08,0.4 -0.2,0.54l-0.05,0.08c-0.08,0.1 -0.1,0.23 -0.05,0.34c0.05,0.12 0.08,0.25 0.07,0.38l0,0.53c0,0.14 -0.1,0.26 -0.2,0.3c-0.14,0.05 -0.23,0.16 -0.27,0.3l-0.05,0.2c-0.04,0.2 0.03,0.4 0.2,0.52c0.16,0.12 0.26,0.3 0.3,0.52l0,0.18c0.03,0.2 0.14,0.4 0.32,0.5c0.18,0.12 0.32,0.3 0.4,0.5l0.05,0.16c0.08,0.22 0.26,0.35 0.46,0.37l0.06,0c0.18,0 0.34,0.1 0.44,0.26c0.1,0.16 0.26,0.27 0.44,0.3l0.28,0.08c0.17,0.05 0.33,0.14 0.46,0.27l0.02,0.02c0.1,0.08 0.26,0.07 0.35,-0.04l0.07,-0.08c-0.00333,-0.00667 -0.00667,-0.01333 -0.01,-0.02zm1.14,-0.92c0.1,0.06 0.2,0.03 0.24,-0.06l0.03,-0.05c0.07,-0.14 0.16,-0.28 0.26,-0.4l0.2,-0.3c0.03,0 0.04,-0.02 0.05,-0.04l0.24,-0.32c0.1,-0.1 0.22,-0.17 0.36,-0.17c0.13,0 0.24,-0.07 0.3,-0.2c0.04,-0.14 0.1,-0.27 0.22,-0.38l0.05,-0.06c0.1,-0.1 0.2,-0.15 0.3,-0.2c0.13,-0.02 0.25,-0.04 0.37,-0.04l0.3,0c0.12,0 0.22,-0.05 0.28,-0.15c0.06,-0.1 0.15,-0.17 0.25,-0.22l0.1,-0.04c0.16,-0.07 0.34,-0.12 0.52,-0.14l0.2,-0.02c0.12,0 0.25,0 0.37,0.07c0.1,0.07 0.23,0.06 0.33,-0.02l0.07,-0.04c0.15,-0.1 0.32,-0.18 0.5,-0.2l0.02,0c0.2,-0.04 0.38,-0.04 0.58,-0.03l0.1,0c0.2,0.03 0.37,0.1 0.5,0.25l0.03,0.04c0.1,0.1 0.26,0.18 0.4,0.18l0.17,0c0.05,0 0.1,-0.02 0.13,-0.07c0.03,-0.03 0.08,-0.06 0.13,-0.06l0.1,0c0.14,0 0.27,0.04 0.4,0.08l0.17,0.07c0.16,0.05 0.33,0.1 0.5,0.12l0.12,0c0.08,0 0.13,-0.05 0.13,-0.12c0,-0.1 -0.02,-0.2 -0.07,-0.28l-0.07,-0.15c-0.08,-0.13 -0.14,-0.27 -0.2,-0.4l-0.02,-0.05c-0.05,-0.1 -0.05,-0.2 0,-0.3l0,-0.05c0.02,-0.08 -0.02,-0.17 -0.1,-0.2l-0.08,0c-0.16,-0.05 -0.3,-0.14 -0.4,-0.27l-0.1,-0.1c-0.1,-0.1 -0.16,-0.25 -0.2,-0.4c-0.05,-0.13 -0.16,-0.23 -0.3,-0.23l-0.42,0c-0.15,-0.02 -0.28,-0.1 -0.37,-0.22l-0.04,-0.05c-0.07,-0.1 -0.13,-0.22 -0.17,-0.34c-0.05,-0.1 -0.16,-0.16 -0.26,-0.13l-0.12,0.04c-0.2,0.07 -0.4,0.1 -0.6,0.08l-0.16,-0.02c-0.17,0 -0.33,-0.07 -0.46,-0.17l-0.1,-0.07c-0.08,-0.06 -0.16,-0.1 -0.25,-0.14c-0.1,-0.04 -0.18,-0.02 -0.24,0.05l-0.05,0.06c-0.1,0.1 -0.24,0.18 -0.38,0.2l-0.54,0.03c-0.1,0 -0.2,0.05 -0.27,0.12c-0.08,0.07 -0.17,0.12 -0.27,0.14l-0.02,0c-0.1,0 -0.2,0.07 -0.3,0.14l0,0.02c-0.1,0.1 -0.23,0.15 -0.36,0.15l-0.04,0.02c-0.12,0 -0.24,0 -0.36,0.03l-0.12,0c-0.17,0.03 -0.3,0.17 -0.34,0.35l-0.04,0.23c-0.03,0.16 -0.1,0.3 -0.2,0.43c-0.1,0.12 -0.22,0.2 -0.37,0.2l-0.15,0l-0.02,0c-0.1,0.02 -0.2,0.13 -0.18,0.25c0.02,0.17 0,0.32 -0.03,0.47l-0.04,0.17c-0.04,0.15 -0.14,0.27 -0.27,0.32l-0.06,0.03l-0.02,0c-0.06,0.04 -0.1,0.13 -0.05,0.2c0.06,0.1 0.08,0.2 0.07,0.3l-0.03,0.32c0,0.12 -0.05,0.23 -0.1,0.33c-0.06,0.1 -0.06,0.2 -0.02,0.3l0.1,0.22c0.05,0.1 0.06,0.2 0.03,0.32c-0.03,0.1 -0.05,0.2 -0.04,0.3c0,0.1 0.06,0.2 0.14,0.24l0.02,0.02l0.02,0.01zm7.9,7.23c0.1,0.1 0.25,0.14 0.37,0.06l0.2,-0.13c0.1,-0.07 0.18,-0.17 0.22,-0.3l0,-0.02l0.1,-0.3l0.06,-0.1l0.04,-0.1l0.04,-0.07c0.04,-0.08 0.1,-0.14 0.2,-0.17l0.04,-0.02c0.08,-0.02 0.13,-0.1 0.13,-0.18c0,-0.1 0.05,-0.18 0.1,-0.25l0.08,-0.07l0.2,-0.26l0,-0.02c0.06,-0.08 0.1,-0.17 0.12,-0.27c0.02,-0.1 0,-0.2 -0.04,-0.3l-0.02,-0.04c-0.04,-0.1 -0.06,-0.17 -0.07,-0.26l-0.03,-0.28l-0.03,-0.3c0,-0.1 0.04,-0.2 0.1,-0.3c0.07,-0.08 0.12,-0.18 0.16,-0.28l0,-0.04l0.02,-0.02c0.02,-0.1 -0.03,-0.2 -0.12,-0.2c-0.1,-0.05 -0.2,-0.13 -0.23,-0.25l-0.03,-0.06c-0.05,-0.18 -0.08,-0.36 -0.08,-0.54l0.02,-0.5l0,-0.03c0,-0.17 -0.14,-0.3 -0.3,-0.3l-0.02,0c-0.2,0 -0.36,-0.06 -0.5,-0.2l-0.08,-0.1l-0.2,-0.23l-0.26,-0.3c-0.1,-0.14 -0.2,-0.26 -0.33,-0.38c-0.1,-0.1 -0.25,-0.2 -0.4,-0.22l-0.2,-0.03c-0.1,-0.02 -0.23,-0.07 -0.34,-0.14c-0.08,-0.06 -0.2,-0.04 -0.28,0.04l-0.13,0.14l-0.06,0.04c-0.07,0.02 -0.14,-0.02 -0.17,-0.1c-0.04,-0.12 -0.04,-0.26 0.02,-0.38l0,-0.06c0,-0.07 -0.06,-0.12 -0.12,-0.1l-0.16,0c-0.18,0 -0.36,-0.02 -0.53,-0.1l-0.1,-0.04c-0.1,-0.05 -0.22,-0.08 -0.33,-0.08c-0.1,0 -0.2,0.02 -0.3,0.08l-0.04,0.03c-0.12,0.08 -0.26,0.12 -0.4,0.13l-0.33,0c-0.15,0 -0.3,0.05 -0.4,0.13c-0.13,0.08 -0.27,0.13 -0.42,0.16l-0.27,0.04c-0.12,0.03 -0.25,0.08 -0.36,0.17c-0.1,0.1 -0.24,0.16 -0.37,0.2l-0.05,0.02c-0.16,0.05 -0.3,0.15 -0.4,0.3l-0.12,0.12c-0.07,0.1 -0.07,0.22 0,0.32c0.06,0.1 0.18,0.13 0.3,0.1l0.15,-0.06c0.08,-0.03 0.17,0 0.24,0.04c0.06,0.05 0.15,0.08 0.24,0.07l0.25,-0.03c0.14,0 0.28,0 0.42,0.04c0.15,0.05 0.28,0.1 0.4,0.2s0.25,0.14 0.4,0.16c0.15,0.02 0.3,0.05 0.44,0.1l0.1,0.02c0.1,0.03 0.18,0.1 0.24,0.2c0.05,0.08 0.1,0.2 0.1,0.3l0,0.03c0,0.12 0.1,0.2 0.2,0.2l0.06,0c0.16,0 0.33,0.02 0.5,0.07l0.07,0.03c0.1,0.04 0.2,0.1 0.27,0.2c0.08,0.1 0.13,0.2 0.16,0.3l0.03,0.14c0.03,0.15 0.04,0.3 0.04,0.46l0,0.05c0,0.1 0.07,0.2 0.18,0.24c0.1,0.02 0.22,0.06 0.33,0.12l0.05,0.02c0.13,0.08 0.26,0.18 0.36,0.3l0.05,0.07c0.13,0.15 0.2,0.34 0.2,0.53l0,0.07c0,0.15 -0.03,0.3 -0.08,0.44c-0.04,0.12 0,0.26 0.13,0.3l0.07,0.05c0.15,0.06 0.28,0.17 0.38,0.3c0.1,0.15 0.14,0.32 0.14,0.5l0,0.3c-0.02,0.1 -0.05,0.18 -0.1,0.25s-0.05,0.17 0,0.24l0.06,0.1l0.02,-0.01zm-6.4,-5.12l-0.02,0c-0.04,0 -0.06,0.05 -0.05,0.1l0.04,0.2c0.04,0.16 0.06,0.32 0.08,0.48c0.02,0.16 0.1,0.3 0.22,0.4l0.04,0c0.15,0.12 0.24,0.3 0.25,0.48l0,0.5c-0.02,0.1 0,0.2 0.06,0.28l0.05,0.05c0.1,0.12 0.14,0.26 0.15,0.4l0.03,0.55c0,0.13 -0.08,0.24 -0.2,0.26l-0.1,0.02c-0.07,0 -0.1,0.08 -0.1,0.15c0,0.08 0.03,0.17 0.06,0.25l0,0.02c0.03,0.1 0.04,0.2 0.03,0.3l-0.04,0.27c-0.04,0.2 -0.1,0.38 -0.2,0.56l-0.07,0.12c-0.05,0.1 -0.12,0.16 -0.2,0.2c-0.1,0.04 -0.17,0.12 -0.2,0.22l-0.08,0.36c-0.05,0.2 -0.14,0.4 -0.26,0.6l-0.02,0c-0.12,0.16 -0.27,0.3 -0.45,0.4l-0.12,0.08l-0.3,0.15c-0.1,0.04 -0.16,0.13 -0.18,0.24l-0.05,0.33c-0.03,0.2 -0.1,0.37 -0.24,0.5l-0.13,0.15l-0.15,0.15l-0.15,0.17c-0.12,0.14 -0.3,0.2 -0.5,0.17l-0.36,-0.07l-0.33,-0.04l-0.09,0c-0.04,0.04 -0.05,0.1 -0.02,0.16c0.07,0.12 0.18,0.2 0.3,0.2l0.22,0.04c0.1,0 0.22,0.05 0.32,0.1c0.1,0.07 0.2,0.12 0.32,0.15l0.02,0c0.13,0.05 0.27,0.06 0.4,0.05l0.15,-0.02c0.17,-0.02 0.33,0 0.47,0.06l0.12,0.04c0.05,0.02 0.13,0 0.18,-0.05c0.06,-0.06 0.12,-0.1 0.2,-0.13l0.08,-0.02c0.13,-0.04 0.26,-0.06 0.4,-0.06l0.08,0c0.12,0 0.23,0.02 0.33,0.08l0.04,0.02c0.07,0.03 0.15,0 0.2,-0.06c0.03,-0.07 0.1,-0.14 0.17,-0.2l0.25,-0.17l0.16,-0.1l0.08,-0.05c0.1,-0.07 0.24,-0.1 0.36,-0.1l0.36,-0.03c0.14,-0.02 0.26,-0.12 0.3,-0.26c0.04,-0.15 0.1,-0.3 0.2,-0.43s0.2,-0.24 0.3,-0.34c0.13,-0.1 0.26,-0.15 0.4,-0.16l0.08,0c0.16,-0.03 0.28,-0.18 0.27,-0.34l0,-0.02l0,-0.65c0.02,-0.1 0.06,-0.23 0.12,-0.33l0.2,-0.3l0.08,-0.1c0.06,-0.05 0.1,-0.12 0.17,-0.2l0.1,-0.13c0.06,-0.1 0.06,-0.23 -0.02,-0.32c-0.1,-0.1 -0.15,-0.24 -0.17,-0.38l0,-0.04c-0.02,-0.16 -0.02,-0.33 0.03,-0.5l0,-0.05c0.05,-0.13 0.12,-0.26 0.2,-0.38c0.08,-0.1 0.07,-0.24 -0.03,-0.32l-0.17,-0.15c-0.14,-0.12 -0.22,-0.3 -0.24,-0.48l-0.02,-0.2c0,-0.06 0,-0.13 -0.02,-0.2l-0.02,-0.15c-0.02,-0.17 -0.12,-0.3 -0.26,-0.4l-0.07,-0.02c-0.1,-0.06 -0.2,-0.15 -0.28,-0.27c-0.08,-0.1 -0.12,-0.24 -0.15,-0.38l-0.03,-0.17c0,-0.06 -0.04,-0.1 -0.1,-0.13l-0.16,-0.05l-0.32,-0.1c-0.1,-0.02 -0.2,-0.1 -0.27,-0.17l-0.02,0c-0.06,-0.08 -0.16,-0.08 -0.22,-0.02l-0.1,0.1c-0.02,0.03 -0.04,0.04 -0.07,0.03c-0.06,0 -0.1,-0.05 -0.08,-0.1c0.02,-0.16 -0.04,-0.32 -0.17,-0.42l-0.13,-0.1l-0.3,-0.2c-0.08,-0.03 -0.2,0 -0.24,0.1l-0.04,0.06c0,0.02 -0.03,0.03 -0.04,0.04c-0.04,0 -0.1,0 -0.1,-0.05l-0.03,-0.05c-0.03,-0.06 -0.1,-0.1 -0.16,-0.12l-0.03,-0.06zm-1.2,1l-0.05,-0.05c-0.05,-0.04 -0.1,-0.03 -0.15,0.02c-0.07,0.12 -0.13,0.25 -0.16,0.38l0,0.02c-0.03,0.13 -0.15,0.22 -0.27,0.2l-0.1,0l-0.02,0c-0.14,0 -0.25,0.12 -0.25,0.26c0,0.18 -0.06,0.36 -0.17,0.5l-0.06,0.06c-0.1,0.13 -0.25,0.22 -0.4,0.27l-0.08,0.02c-0.1,0.03 -0.18,0.1 -0.2,0.22c0,0.1 -0.06,0.2 -0.14,0.28l-0.1,0.08c-0.12,0.13 -0.3,0.2 -0.48,0.22l-0.5,0.05c-0.16,0 -0.3,0.1 -0.4,0.25c-0.1,0.15 -0.25,0.25 -0.4,0.27l-0.22,0.02c-0.16,0.02 -0.33,0.02 -0.5,-0.02l-0.1,-0.02l-0.27,-0.07c-0.1,-0.03 -0.18,0 -0.24,0.07l-0.1,0.13c-0.13,0.15 -0.32,0.22 -0.5,0.2l-0.65,-0.08c-0.1,0 -0.18,-0.05 -0.27,-0.1c-0.1,-0.06 -0.17,-0.13 -0.24,-0.2l-0.25,-0.3c-0.03,-0.02 -0.08,-0.03 -0.13,-0.02l-0.14,0.06l-0.56,0.14c-0.1,0.03 -0.23,0 -0.33,-0.06c-0.1,-0.08 -0.22,-0.1 -0.34,-0.1l-0.13,0c-0.12,0.03 -0.2,0.16 -0.16,0.28l0.04,0.2c0.03,0.1 0.02,0.22 -0.03,0.32s-0.04,0.2 0.03,0.3l0.06,0.08c0.08,0.12 0.2,0.22 0.3,0.32c0.1,0.1 0.2,0.2 0.28,0.33l0.15,0.27c0.08,0.14 0.2,0.22 0.36,0.22c0.15,0 0.3,0.05 0.42,0.15l0.3,0.28c0.08,0.07 0.2,0.08 0.28,0.02l0.05,-0.02c0.06,0 0.1,0.04 0.1,0.1l0,0.05c0,0.13 0.1,0.25 0.23,0.3l0.45,0.1c0.16,0.05 0.32,0.1 0.47,0.2l0.08,0c0.08,0 0.15,-0.07 0.14,-0.16l0,-0.35c0,-0.1 0.04,-0.2 0.12,-0.24l0.05,-0.02c0.05,0.02 0.1,0.06 0.08,0.1l0,0.17c0,0.13 0.04,0.25 0.13,0.34c0.1,0.1 0.23,0.12 0.34,0.08c0.12,-0.05 0.24,-0.06 0.37,-0.05l0.37,0.02c0.18,0.02 0.35,0 0.5,-0.07c0.18,-0.06 0.33,-0.14 0.47,-0.25l0.06,-0.04l0.3,-0.27c0.1,-0.1 0.23,-0.15 0.35,-0.15l0.4,0c0.2,-0.02 0.38,-0.2 0.4,-0.4l0.04,-0.2c0,-0.13 0.06,-0.25 0.15,-0.35c0.1,-0.1 0.2,-0.16 0.3,-0.2l0.12,-0.05c0.17,-0.07 0.3,-0.22 0.36,-0.4l0.06,-0.24c0.05,-0.2 0.15,-0.4 0.3,-0.53l0.02,-0.02c0.12,-0.1 0.14,-0.3 0.06,-0.44l-0.03,-0.07c-0.07,-0.1 -0.08,-0.25 -0.03,-0.38c0.05,-0.14 0.1,-0.26 0.18,-0.38l0.1,-0.14c0.04,-0.08 0.04,-0.2 -0.02,-0.27c-0.06,-0.08 -0.1,-0.18 -0.1,-0.28l-0.02,-0.14l0,-0.34c0.02,-0.1 0,-0.23 -0.03,-0.33l-0.04,-0.12l-0.01,-0.03zm-1.43,-0.76l0,-0.03c0,-0.1 -0.06,-0.16 -0.14,-0.16l-0.26,0c-0.1,0.02 -0.2,0.02 -0.28,0l-0.45,0c-0.23,0 -0.45,-0.04 -0.67,-0.1l-0.24,-0.06l-0.2,-0.06l-0.45,-0.15c-0.24,-0.07 -0.42,-0.23 -0.53,-0.45l-0.05,-0.1c-0.07,-0.15 -0.22,-0.23 -0.37,-0.2c-0.17,0 -0.34,0 -0.5,-0.08l-0.12,-0.05c-0.23,-0.1 -0.4,-0.3 -0.4,-0.57l-0.04,-0.27c-0.03,-0.14 -0.12,-0.27 -0.24,-0.32c-0.14,-0.06 -0.27,-0.14 -0.4,-0.23l-0.05,-0.03c-0.15,-0.12 -0.28,-0.28 -0.35,-0.47l-0.02,-0.06c-0.05,-0.16 -0.06,-0.33 -0.02,-0.5l0.02,-0.06c0.04,-0.13 0.05,-0.26 0.05,-0.4c0,-0.12 -0.05,-0.24 -0.14,-0.33l-0.14,-0.13c-0.16,-0.13 -0.26,-0.32 -0.27,-0.53c-0.02,-0.22 -0.02,-0.43 0.02,-0.64l0,-0.02l0,-0.03c0,-0.12 -0.1,-0.2 -0.2,-0.2l-0.03,0c-0.13,0 -0.24,0.08 -0.3,0.2c-0.05,0.14 -0.13,0.25 -0.22,0.36l-0.04,0.05l-0.2,0.2l-0.1,0.1c-0.1,0.1 -0.16,0.25 -0.18,0.4c-0.02,0.15 -0.06,0.3 -0.12,0.44l-0.02,0.05c-0.05,0.12 -0.13,0.23 -0.23,0.3c-0.1,0.08 -0.17,0.2 -0.17,0.32l-0.02,0.46c0,0.2 -0.03,0.4 -0.1,0.6l-0.02,0.08c-0.05,0.13 0,0.27 0.12,0.33l0.42,0.18l0.04,0.02c0.03,0 0.04,0.02 0.05,0.05c0.03,0.04 0,0.1 -0.03,0.1l-0.1,0.05c-0.06,0.02 -0.1,0.08 -0.12,0.15l-0.02,0.1l0,0.02l-0.1,0.56c-0.02,0.08 -0.02,0.17 -0.02,0.26c0,0.08 0.05,0.15 0.12,0.18l0.22,0.1c0.1,0.06 0.22,0.13 0.3,0.2l0.1,0.08c0.03,0.04 0.08,0.08 0.12,0.1l0.04,0.04c0.07,0.06 0.12,0.14 0.14,0.23l0.1,0.45c0,0.12 0.1,0.22 0.2,0.25l0.16,0.05s0.03,0 0.05,0.02l0.2,0.06c0.16,0.05 0.3,0.14 0.42,0.26c0.12,0.1 0.24,0.23 0.34,0.37l0.04,0.04c0.08,0.1 0.2,0.15 0.32,0.12s0.25,-0.04 0.38,-0.04l0.15,0c0.1,0 0.23,0.03 0.34,0.1c0.1,0.06 0.23,0.1 0.35,0.15l0.03,0c0.12,0.05 0.25,0.03 0.35,-0.04c0.1,-0.08 0.23,-0.12 0.36,-0.12l0.47,0.03c0.1,0 0.2,-0.02 0.25,-0.1l0.02,0l0.17,-0.16l0.05,-0.05c0.08,-0.1 0.2,-0.14 0.32,-0.15l0.45,0c0.12,0 0.23,-0.1 0.28,-0.2c0.05,-0.1 0.15,-0.18 0.27,-0.2l0.2,-0.04c0.08,0 0.15,-0.07 0.18,-0.16c0.03,-0.1 0.08,-0.18 0.15,-0.24l0.16,-0.16c0.1,-0.1 0.15,-0.2 0.17,-0.32l-0.02,0z"/>
 </g>
</svg>